# xmcd CD database file
#
# Track frame offsets:
#	150
#	16414
#	29799
#
# Disc length: 612 seconds
#
# Revision: 3
# Processed by: cddbd v1.5.2PL0 Copyright (c) Steve Scherf et al.
# Submitted via: CDex 1.40
#
DISCID=20026203
DTITLE=Fritz and the Downhill Gang - Genie auf die Ski
DYEAR=2007
DGENRE=National Folk
TTITLE0=radio mix
TTITLE1=Fun Mix featuring Robert Seeger
TTITLE2=karaoke mix
EXTD=YEAR: 2007 ID3G: 82
EXTT0=
EXTT1=
EXTT2=
PLAYORDER=
